# xmcd
#
# Track frame offsets: 
#        150
#        13557
#        30021
#        47329
#        62261
#        73258
#        92832
#        109208
#        128043
#        144694
#        163513
#        182228
#        200139
#
# Disc length: 2899 seconds
#
# Revision: 0
# Processed by: cddbd v1.5.2PL0 Copyright (c) Steve Scherf et al.
# Submitted via: ExactAudioCopy v0.99pb4
#
DISCID=ad0b510d
DTITLE=Various Artist - Country Nights Disc 3
DYEAR=1990
DGENRE=Corporate Country
TTITLE0=Waylon Jennigs - Drinkin' and Dreamin'
TTITLE1=Garth Brooks - If Tomorrow Never Comes
TTITLE2=Earl Thomas Conley - What I'd Say
TTITLE3=Rosanne Cash and Rodney Crowell - It's Such a Small World
TTITLE4=Eddy Raven - I Got Mexico
TTITLE5=Kathy Mattea - Goin' Gone
TTITLE6=Alan Jackson - Here in the Real World
TTITLE7=Restless Heart - I'll Still Be Loving You
TTITLE8=Shenandoah - Two Dozen Roses
TTITLE9=Keith Whitley - Don't Close Your Eyes
TTITLE10=Patty Loveless - Don't Toss Us Away
TTITLE11=Vern Gosdin - That Just About Does It
TTITLE12=Eddie Rabbit and Juice Newton - Both to Each Other (Friends and L
TTITLE12=overs)
EXTD=
EXTT0=
EXTT1=
EXTT2=
EXTT3=
EXTT4=
EXTT5=
EXTT6=
EXTT7=
EXTT8=
EXTT9=
EXTT10=
EXTT11=
EXTT12=
PLAYORDER=
